<svg xmlns="http://www.w3.org/2000/svg" version="1.0" viewBox="0 0 512 512"><path d="M105.3 59.8c-39 62.8-40.8 65.8-44.1 76.2-15 46.3 13.4 98.3 59.9 109.3 2.7.6 4.8 1.4 4.6 1.7-2.9 4.8-10.7 22.7-13.3 30.6-12.3 36.8-12.4 74.7-.4 112.4 4.2 12.9 16.5 37.5 24.7 49 9.8 13.9 30.3 33.9 43.7 42.9 28.8 19.2 57.1 28.4 91.6 29.8 15.7.6 29.5-.5 44.6-3.7 50.6-10.5 94.9-45.1 118.8-92.6 12.3-24.4 18.2-47.8 19.3-75.9 1.1-29.9-5.4-59-19.2-85.9C430.3 243.3 280.6 1.7 279.2 1.2c-.4-.1-16 24.3-34.6 54.3-18.7 30-34 54.4-34.1 54.3-.1-.2-15.4-24.8-34-54.8C157.9 25 142.6.4 142.5.3c-.1-.2-16.8 26.6-37.2 59.5zm60.4 34.7c12.3 19.8 23.7 38.5 25.3 41.6 14 27.2 3.7 61.3-22.8 75.2-27.2 14.3-59.9 4.4-74.2-22.4-3.8-7.2-7-19.4-7-26.9 0-6.9 3-19.2 6.2-25.3 4.9-9.4 48.4-78.6 49.2-78.4.5.2 11 16.5 23.3 36.2zm176.4 64c34.2 55 64.3 104.3 66.9 109.5 6 11.9 10.4 24.2 13.2 37.3 3.1 14.6 3.1 42.7 0 57.3-3.2 14.7-6.5 24.4-13.1 37.9-16 32.6-42.1 57.2-74.7 70.6-42.4 17.3-92.4 13.4-131.1-10.3-54-33.1-81.2-100.1-65.8-161.9 4-16 8.7-27.1 18.7-44.1l5.1-8.6 8.3-2.7c18.1-5.9 35.6-20.1 45.6-37 9.6-16.3 14.1-36.5 11.9-54-.7-5.2-.9-10-.5-10.7 6.2-11 52-83.8 52.6-83.6.4.2 28.7 45.3 62.9 100.3z"/><path d="M174 330.5V394h30v-37h9.5c17 0 27.1-3.6 36.8-13.2 17.4-17.2 18-44.3 1.5-62.3-5.9-6.5-11.4-10-19.9-12.6-5.3-1.7-9.4-1.9-32-1.9H174v63.5zm53.7-30.7c4 2.8 6.8 9.8 5.9 14.6-.8 4.4-5 9.4-9.3 11.2-1.9.8-6.8 1.4-11.8 1.4H204v-30.2l10.3.4c8.7.2 10.7.6 13.4 2.6zm66.3 30.7V394h30v-43h30v43h30V267h-30v53h-30v-53h-30v63.5z"/></svg>
