<svg xmlns="http://www.w3.org/2000/svg" version="1.0" viewBox="0 0 1024 299"><path d="M0 144.5V289h53V183h91.9l14.3-23.7c7.9-13.1 14.5-24.1 14.6-24.5.2-.5-26.9-.8-60.2-.8H53l.2-43 .3-43.1 55.2.1h55.2l14-23.4C185.7 11.7 192 .9 192 .6c0-.3-43.2-.6-96-.6H0v144.5zM218.3.7c.7 1.3 49.8 82.5 81.2 134.5l28.9 47.8h58.1l53-87.7c29.2-48.2 54-89.4 55.3-91.5l2.3-3.8-31.7.2-31.7.3-37.8 63.8c-20.7 35.1-38 63.8-38.5 63.8-.4.1-17.7-28.6-38.5-63.8L281.2.5 249.5.2c-17.4-.1-31.4.1-31.2.5zm312.8 22.7c-7.8 12.9-14.1 23.7-14.1 24 0 .4 21.6.5 48 .4l48-.3V289h54V47.5l33.4.3 33.5.3 14-23.5C755.7 11.7 762 .9 762 .6c0-.3-48.8-.6-108.4-.6H545.1l-14 23.4zm298.2 42.3c-34.8 90.9-84 219.4-84.8 221.6-.7 1.6.9 1.7 28.5 1.5l29.2-.3 13.1-33.3 13-33.2h111.3l12.9 33.1c7.2 18.2 13.4 33.3 14 33.5.6.3 13.7.3 29.2.2l28.1-.3-44.4-116C955 108.7 930.2 43.8 924.3 28.3L913.5 0h-59.1l-25.1 65.7zm61 14.8c3 8.8 11.4 33 18.6 53.7 7.2 20.7 13.1 37.9 13.1 38.2 0 .3-17.1.6-38 .6s-38-.3-38-.8c0-.4 4.9-14.9 10.9-32.2 6-17.3 14.5-41.7 18.8-54.2 4.3-12.5 8.1-22.4 8.5-22 .3.4 3.1 7.9 6.1 16.7zM344.9 223.3c-14.5 4.9-24.9 18.2-26.6 33.7-1.6 15.4 7.7 31.5 22.4 38.7 7.4 3.6 21.2 4.5 29.2 1.8 10.5-3.5 20.6-13.5 24.7-24.5 1.1-2.9 1.7-7.6 1.7-13 0-7.3-.4-9.4-3-15.1-8.8-19.3-28.9-28.2-48.4-21.6z"/></svg>
